# xmcd
#
# Track frame offsets: 
#        225
#        12050
#        37820
#        52114
#        66995
#        82658
#        94200
#        109230
#        119679
#        143869
#        159490
#        179855
#        194237
#
# Disc length: 2789 seconds
#
# Revision: 0
# Processed by: cddbd v1.5.1PL2 Copyright (c) Steve Scherf et al.
# Submitted via: ExactAudioCopy v0.95a5
#
DISCID=bc0ae20d
DTITLE=Skaggs Family - A Skaggs Family Christmas
DYEAR=2005
DGENRE=Christmas
TTITLE0=Let it Snow, Let it Snow, Let it Snow
TTITLE1=Little Drummer Boy
TTITLE2=What Child is This?
TTITLE3=Love Came Gently
TTITLE4=Mary, Did You Know?
TTITLE5=Hangin' Round the Mistletoe
TTITLE6=Christmas Time is Here
TTITLE7=Deck the Halls
TTITLE8=The Christmas Guest
TTITLE9=Have Yourself A Merry Little Christmas
TTITLE10=White Christmas
TTITLE11=Go Thee Down
TTITLE12=Do You Hear What I Hear?
EXTD=
EXTT0=
EXTT1=
EXTT2=
EXTT3=
EXTT4=
EXTT5=
EXTT6=
EXTT7=
EXTT8=
EXTT9=
EXTT10=
EXTT11=
EXTT12=
PLAYORDER=
